<mxfile host="app.diagrams.net" modified="2024-07-26T00:35:34.063Z" agent="Mozilla/5.0 (Windows NT 10.0; Win64; x64) AppleWebKit/537.36 (KHTML, like Gecko) Chrome/127.0.0.0 Safari/537.36" etag="9ZcykynmQQVtLbszuhd_" version="24.7.1" type="device">
  <diagram name="Page-1" id="RloGJpYMIdvcqcdj3OxJ">
    <mxGraphModel dx="3782" dy="4445" grid="1" gridSize="10" guides="1" tooltips="1" connect="1" arrows="1" fold="1" page="1" pageScale="1" pageWidth="850" pageHeight="1100" math="0" shadow="0">
      <root>
        <mxCell id="0" />
        <mxCell id="1" parent="0" />
        <mxCell id="sdNyDFk5IxW9DPWMKQOS-30" value="" style="rounded=0;whiteSpace=wrap;html=1;strokeColor=none;fillColor=#0c5ea6;sketch=1;curveFitting=1;jiggle=2;" vertex="1" parent="1">
          <mxGeometry x="-1274" y="-1390" width="50" height="20" as="geometry" />
        </mxCell>
        <mxCell id="sdNyDFk5IxW9DPWMKQOS-4" value="" style="rounded=0;whiteSpace=wrap;html=1;strokeColor=none;fillColor=#0c5ea6;sketch=1;curveFitting=1;jiggle=2;" vertex="1" parent="1">
          <mxGeometry x="-1274" y="-1460" width="50" height="20" as="geometry" />
        </mxCell>
        <object placeholders="1" c4Name="Container" c4Type="ContainerScopeBoundary" c4Application="Explicando Contexto Delimitados" label="&lt;font style=&quot;font-size: 16px&quot;&gt;&lt;b&gt;&lt;div style=&quot;&quot;&gt;%c4Name%&lt;/div&gt;&lt;/b&gt;&lt;/font&gt;&lt;div style=&quot;&quot;&gt;[%c4Application%]&lt;/div&gt;" id="ZBGyYvDXjg_CmxSVn3i1-15">
          <mxCell style="rounded=1;fontSize=11;whiteSpace=wrap;html=1;arcSize=20;fillColor=#DBDBDB;strokeColor=#d4d3d3;fontColor=#333333;labelBackgroundColor=none;align=left;verticalAlign=bottom;labelBorderColor=none;spacingTop=0;spacing=10;metaEdit=1;rotatable=0;perimeter=rectanglePerimeter;noLabel=0;labelPadding=0;allowArrows=0;connectable=0;expand=0;recursiveResize=0;editable=1;pointerEvents=0;absoluteArcSize=1;points=[[0.25,0,0],[0.5,0,0],[0.75,0,0],[1,0.25,0],[1,0.5,0],[1,0.75,0],[0.75,1,0],[0.5,1,0],[0.25,1,0],[0,0.75,0],[0,0.5,0],[0,0.25,0]];shadow=1;gradientColor=none;sketch=1;curveFitting=1;jiggle=2;glass=0;" parent="1" vertex="1">
            <mxGeometry x="-2536" y="-1710" width="776" height="400" as="geometry" />
          </mxCell>
        </object>
        <mxCell id="ZBGyYvDXjg_CmxSVn3i1-27" value="" style="verticalLabelPosition=bottom;verticalAlign=top;html=1;shape=mxgraph.basic.polygon;polyCoords=[[0.25,0],[0.87,0],[1,0.3],[1,0.75],[0.83,1],[0.25,1],[0,0.75],[0,0.3]];polyline=0;fillColor=none;dashed=1;dashPattern=12 12;sketch=1;curveFitting=1;jiggle=2;shadow=1;" parent="1" vertex="1">
          <mxGeometry x="-2520" y="-1690" width="380" height="330" as="geometry" />
        </mxCell>
        <mxCell id="ZBGyYvDXjg_CmxSVn3i1-37" value="" style="verticalLabelPosition=bottom;verticalAlign=top;html=1;shape=mxgraph.basic.polygon;polyCoords=[[0.25,0],[0.8,0],[1,0.3],[1,0.75],[0.83,1],[0.23,0.95],[0,0.75],[0,0.23]];polyline=0;fillColor=none;dashed=1;dashPattern=12 12;sketch=1;curveFitting=1;jiggle=2;shadow=1;" parent="1" vertex="1">
          <mxGeometry x="-2130" y="-1675" width="350" height="330" as="geometry" />
        </mxCell>
        <mxCell id="ZBGyYvDXjg_CmxSVn3i1-48" value="" style="rounded=0;whiteSpace=wrap;html=1;strokeColor=none;fillColor=#0c5ea6;sketch=1;curveFitting=1;jiggle=2;" parent="1" vertex="1">
          <mxGeometry x="-2160" y="-1500" width="50" height="20" as="geometry" />
        </mxCell>
        <mxCell id="ZBGyYvDXjg_CmxSVn3i1-47" value="" style="rounded=0;whiteSpace=wrap;html=1;strokeColor=none;fillColor=#0c5ea6;sketch=1;curveFitting=1;jiggle=2;" parent="1" vertex="1">
          <mxGeometry x="-2160" y="-1580" width="50" height="20" as="geometry" />
        </mxCell>
        <mxCell id="ZBGyYvDXjg_CmxSVn3i1-5" value="Termos técnicos&amp;nbsp;&lt;div&gt;que só os devs&amp;nbsp;&lt;/div&gt;&lt;div&gt;precisam saber&lt;/div&gt;" style="ellipse;whiteSpace=wrap;html=1;fillColor=#a7b0b4;strokeColor=#1ba2ff;sketch=1;curveFitting=1;jiggle=2;shadow=1;align=right;fontStyle=2" parent="1" vertex="1">
          <mxGeometry x="-2386" y="-1290" width="279.5" height="170" as="geometry" />
        </mxCell>
        <object placeholders="1" c4Name="Container" c4Type="ContainerScopeBoundary" c4Application="Explicando Contexto Delimitados" label="&lt;font style=&quot;font-size: 16px&quot;&gt;&lt;b&gt;&lt;div style=&quot;&quot;&gt;%c4Name%&lt;/div&gt;&lt;/b&gt;&lt;/font&gt;&lt;div style=&quot;&quot;&gt;[%c4Application%]&lt;/div&gt;" id="ZBGyYvDXjg_CmxSVn3i1-1">
          <mxCell style="rounded=1;fontSize=11;whiteSpace=wrap;html=1;arcSize=20;fillColor=#DBDBDB;strokeColor=#d4d3d3;fontColor=#333333;labelBackgroundColor=none;align=left;verticalAlign=bottom;labelBorderColor=none;spacingTop=0;spacing=10;metaEdit=1;rotatable=0;perimeter=rectanglePerimeter;noLabel=0;labelPadding=0;allowArrows=0;connectable=0;expand=0;recursiveResize=0;editable=1;pointerEvents=0;absoluteArcSize=1;points=[[0.25,0,0],[0.5,0,0],[0.75,0,0],[1,0.25,0],[1,0.5,0],[1,0.75,0],[0.75,1,0],[0.5,1,0],[0.25,1,0],[0,0.75,0],[0,0.5,0],[0,0.25,0]];shadow=1;gradientColor=none;sketch=1;curveFitting=1;jiggle=2;glass=0;" parent="1" vertex="1">
            <mxGeometry x="-2536" y="-2130" width="616" height="400" as="geometry" />
          </mxCell>
        </object>
        <object placeholders="1" c4Name="Espaço do &#xa;Problema" c4Type="Component" c4Technology="" c4Description="" label="&lt;font style=&quot;font-size: 16px&quot;&gt;&lt;b&gt;%c4Name%&lt;/b&gt;&lt;/font&gt;&lt;div&gt;[%c4Type%: %c4Technology%]&lt;/div&gt;&lt;br&gt;&lt;div&gt;&lt;font style=&quot;font-size: 11px&quot;&gt;%c4Description%&lt;/font&gt;&lt;/div&gt;" id="ZBGyYvDXjg_CmxSVn3i1-2">
          <mxCell style="rounded=1;whiteSpace=wrap;html=1;labelBackgroundColor=none;fillColor=#944c00;align=center;arcSize=6;strokeColor=#d79b00;metaEdit=1;resizable=1;points=[[0.25,0,0],[0.5,0,0],[0.75,0,0],[1,0.25,0],[1,0.5,0],[1,0.75,0],[0.75,1,0],[0.5,1,0],[0.25,1,0],[0,0.75,0],[0,0.5,0],[0,0.25,0]];resizeWidth=0;glass=0;shadow=1;sketch=1;curveFitting=1;jiggle=2;verticalAlign=top;movable=1;rotatable=1;deletable=1;editable=1;locked=0;connectable=1;" parent="1" vertex="1">
            <mxGeometry x="-2486" y="-2089" width="226" height="311" as="geometry" />
          </mxCell>
        </object>
        <object placeholders="1" c4Name="Espaço da &#xa;Solução" c4Type="Component" c4Technology="" c4Description="" label="&lt;font style=&quot;font-size: 16px&quot;&gt;&lt;b&gt;%c4Name%&lt;/b&gt;&lt;/font&gt;&lt;div&gt;[%c4Type%: %c4Technology%]&lt;/div&gt;&lt;br&gt;&lt;div&gt;&lt;font style=&quot;font-size: 11px&quot;&gt;%c4Description%&lt;/font&gt;&lt;/div&gt;" id="ZBGyYvDXjg_CmxSVn3i1-3">
          <mxCell style="rounded=1;whiteSpace=wrap;html=1;labelBackgroundColor=none;fillColor=#279121;align=center;arcSize=6;strokeColor=#82b366;metaEdit=1;resizable=1;points=[[0.25,0,0],[0.5,0,0],[0.75,0,0],[1,0.25,0],[1,0.5,0],[1,0.75,0],[0.75,1,0],[0.5,1,0],[0.25,1,0],[0,0.75,0],[0,0.5,0],[0,0.25,0]];resizeWidth=0;glass=0;shadow=1;sketch=1;curveFitting=1;jiggle=2;verticalAlign=top;movable=1;rotatable=1;deletable=1;editable=1;locked=0;connectable=1;" parent="1" vertex="1">
            <mxGeometry x="-2190" y="-2089" width="220" height="311" as="geometry" />
          </mxCell>
        </object>
        <mxCell id="ZBGyYvDXjg_CmxSVn3i1-4" value="Termos do domínio&amp;nbsp;&lt;div&gt;que não são importantes&amp;nbsp;&lt;/div&gt;&lt;blockquote style=&quot;margin: 0 0 0 40px; border: none; padding: 0px;&quot;&gt;&lt;div style=&quot;&quot;&gt;para o sistema&lt;/div&gt;&lt;/blockquote&gt;" style="ellipse;whiteSpace=wrap;html=1;fillColor=#1ba2ff;strokeColor=#1ba2ff;sketch=1;curveFitting=1;jiggle=2;shadow=1;align=left;fontStyle=2" parent="1" vertex="1">
          <mxGeometry x="-2536" y="-1289" width="279.5" height="170" as="geometry" />
        </mxCell>
        <mxCell id="ZBGyYvDXjg_CmxSVn3i1-6" value="Liguagem&lt;div&gt;Ubíqua&lt;/div&gt;" style="text;html=1;align=center;verticalAlign=middle;whiteSpace=wrap;rounded=0;" parent="1" vertex="1">
          <mxGeometry x="-2355" y="-1220" width="60" height="30" as="geometry" />
        </mxCell>
        <mxCell id="ZBGyYvDXjg_CmxSVn3i1-7" value="Domínio" style="rounded=1;whiteSpace=wrap;html=1;sketch=1;curveFitting=1;jiggle=2;shadow=1;strokeColor=#1ba2ff;" parent="1" vertex="1">
          <mxGeometry x="-2433" y="-2010" width="120" height="60" as="geometry" />
        </mxCell>
        <mxCell id="ZBGyYvDXjg_CmxSVn3i1-8" value="Subdomínio" style="rounded=1;whiteSpace=wrap;html=1;sketch=1;curveFitting=1;jiggle=2;shadow=1;strokeColor=#1ba2ff;" parent="1" vertex="1">
          <mxGeometry x="-2433" y="-1910" width="120" height="60" as="geometry" />
        </mxCell>
        <mxCell id="ZBGyYvDXjg_CmxSVn3i1-9" value="Modelo&lt;div&gt;Domínio&lt;/div&gt;" style="rounded=1;whiteSpace=wrap;html=1;sketch=1;curveFitting=1;jiggle=2;shadow=1;strokeColor=#1ba2ff;" parent="1" vertex="1">
          <mxGeometry x="-2140" y="-2010" width="120" height="60" as="geometry" />
        </mxCell>
        <mxCell id="ZBGyYvDXjg_CmxSVn3i1-10" value="Contexto&lt;div&gt;delimitado&lt;/div&gt;" style="rounded=1;whiteSpace=wrap;html=1;sketch=1;curveFitting=1;jiggle=2;shadow=1;strokeColor=#1ba2ff;" parent="1" vertex="1">
          <mxGeometry x="-2140" y="-1910" width="120" height="60" as="geometry" />
        </mxCell>
        <object placeholders="1" c4Type="Relationship" id="ZBGyYvDXjg_CmxSVn3i1-11">
          <mxCell style="endArrow=blockThin;html=1;fontSize=10;fontColor=#404040;strokeWidth=3;endFill=1;strokeColor=#828282;elbow=vertical;metaEdit=1;endSize=14;startSize=14;jumpStyle=arc;jumpSize=16;rounded=0;edgeStyle=orthogonalEdgeStyle;exitX=1;exitY=0.5;exitDx=0;exitDy=0;entryX=0;entryY=0.5;entryDx=0;entryDy=0;sketch=1;curveFitting=1;jiggle=2;" parent="1" source="ZBGyYvDXjg_CmxSVn3i1-7" target="ZBGyYvDXjg_CmxSVn3i1-9" edge="1">
            <mxGeometry width="240" relative="1" as="geometry">
              <mxPoint x="-2313" y="-1970" as="sourcePoint" />
              <mxPoint x="-2073" y="-1970" as="targetPoint" />
            </mxGeometry>
          </mxCell>
        </object>
        <object placeholders="1" c4Type="Relationship" id="ZBGyYvDXjg_CmxSVn3i1-12">
          <mxCell style="endArrow=blockThin;html=1;fontSize=10;fontColor=#404040;strokeWidth=3;endFill=1;strokeColor=#828282;elbow=vertical;metaEdit=1;endSize=14;startSize=14;jumpStyle=arc;jumpSize=16;rounded=0;edgeStyle=orthogonalEdgeStyle;exitX=1;exitY=0.5;exitDx=0;exitDy=0;entryX=0;entryY=0.5;entryDx=0;entryDy=0;sketch=1;curveFitting=1;jiggle=2;" parent="1" edge="1">
            <mxGeometry width="240" relative="1" as="geometry">
              <mxPoint x="-2313" y="-1880.24" as="sourcePoint" />
              <mxPoint x="-2140" y="-1880.24" as="targetPoint" />
            </mxGeometry>
          </mxCell>
        </object>
        <mxCell id="ZBGyYvDXjg_CmxSVn3i1-19" value="Oportunity" style="rounded=1;whiteSpace=wrap;html=1;sketch=1;curveFitting=1;jiggle=2;shadow=1;strokeColor=#d79b00;fillColor=#a87743;" parent="1" vertex="1">
          <mxGeometry x="-2464" y="-1623" width="90" height="40" as="geometry" />
        </mxCell>
        <object placeholders="1" c4Type="Relationship" id="ZBGyYvDXjg_CmxSVn3i1-25">
          <mxCell style="endArrow=blockThin;html=1;fontSize=10;fontColor=#404040;strokeWidth=1;endFill=1;strokeColor=#828282;elbow=vertical;metaEdit=1;endSize=14;startSize=14;jumpStyle=arc;jumpSize=16;rounded=0;edgeStyle=orthogonalEdgeStyle;exitX=1;exitY=0.5;exitDx=0;exitDy=0;entryX=0.25;entryY=0;entryDx=0;entryDy=0;sketch=1;curveFitting=1;jiggle=2;" parent="1" source="ZBGyYvDXjg_CmxSVn3i1-19" target="ZBGyYvDXjg_CmxSVn3i1-29" edge="1">
            <mxGeometry width="240" relative="1" as="geometry">
              <mxPoint x="-2350" y="-1620.34" as="sourcePoint" />
              <mxPoint x="-2259.36" y="-1590" as="targetPoint" />
            </mxGeometry>
          </mxCell>
        </object>
        <mxCell id="ZBGyYvDXjg_CmxSVn3i1-28" value="Pipeline" style="rounded=1;whiteSpace=wrap;html=1;sketch=1;curveFitting=1;jiggle=2;shadow=1;strokeColor=#d79b00;fillColor=#b48e65;" parent="1" vertex="1">
          <mxGeometry x="-2494" y="-1527" width="90" height="40" as="geometry" />
        </mxCell>
        <mxCell id="ZBGyYvDXjg_CmxSVn3i1-29" value="Territory" style="rounded=1;whiteSpace=wrap;html=1;sketch=1;curveFitting=1;jiggle=2;shadow=1;strokeColor=#d79b00;fillColor=#b48e65;" parent="1" vertex="1">
          <mxGeometry x="-2370" y="-1560" width="90" height="40" as="geometry" />
        </mxCell>
        <mxCell id="ZBGyYvDXjg_CmxSVn3i1-30" value="Sales Person" style="rounded=1;whiteSpace=wrap;html=1;sketch=1;curveFitting=1;jiggle=2;shadow=1;strokeColor=#d79b00;fillColor=#b48e65;" parent="1" vertex="1">
          <mxGeometry x="-2418" y="-1450" width="90" height="40" as="geometry" />
        </mxCell>
        <mxCell id="ZBGyYvDXjg_CmxSVn3i1-31" value="Customer" style="rounded=1;whiteSpace=wrap;html=1;sketch=1;curveFitting=1;jiggle=2;shadow=1;strokeColor=#d79b00;fillColor=#b48e65;" parent="1" vertex="1">
          <mxGeometry x="-2240" y="-1510" width="90" height="40" as="geometry" />
        </mxCell>
        <mxCell id="ZBGyYvDXjg_CmxSVn3i1-32" value="Product" style="rounded=1;whiteSpace=wrap;html=1;sketch=1;curveFitting=1;jiggle=2;shadow=1;strokeColor=#d8a114;fillColor=#b48e65;" parent="1" vertex="1">
          <mxGeometry x="-2240" y="-1590" width="90" height="40" as="geometry" />
        </mxCell>
        <object placeholders="1" c4Type="Relationship" id="ZBGyYvDXjg_CmxSVn3i1-33">
          <mxCell style="endArrow=blockThin;html=1;fontSize=10;fontColor=#404040;strokeWidth=1;endFill=1;strokeColor=#828282;elbow=vertical;metaEdit=1;endSize=14;startSize=14;jumpStyle=arc;jumpSize=16;rounded=0;edgeStyle=orthogonalEdgeStyle;exitX=0.5;exitY=1;exitDx=0;exitDy=0;entryX=0.5;entryY=0;entryDx=0;entryDy=0;sketch=1;curveFitting=1;jiggle=2;" parent="1" source="ZBGyYvDXjg_CmxSVn3i1-19" target="ZBGyYvDXjg_CmxSVn3i1-28" edge="1">
            <mxGeometry width="240" relative="1" as="geometry">
              <mxPoint x="-2397.26" y="-1600" as="sourcePoint" />
              <mxPoint x="-2379.26" y="-1520" as="targetPoint" />
            </mxGeometry>
          </mxCell>
        </object>
        <object placeholders="1" c4Type="Relationship" id="ZBGyYvDXjg_CmxSVn3i1-34">
          <mxCell style="endArrow=blockThin;html=1;fontSize=10;fontColor=#404040;strokeWidth=1;endFill=1;strokeColor=#828282;elbow=vertical;metaEdit=1;endSize=14;startSize=14;jumpStyle=arc;jumpSize=16;rounded=0;edgeStyle=orthogonalEdgeStyle;exitX=0.25;exitY=1;exitDx=0;exitDy=0;entryX=0.5;entryY=0;entryDx=0;entryDy=0;sketch=1;curveFitting=1;jiggle=2;" parent="1" source="ZBGyYvDXjg_CmxSVn3i1-29" target="ZBGyYvDXjg_CmxSVn3i1-30" edge="1">
            <mxGeometry width="240" relative="1" as="geometry">
              <mxPoint x="-2320" y="-1500" as="sourcePoint" />
              <mxPoint x="-2302" y="-1420" as="targetPoint" />
            </mxGeometry>
          </mxCell>
        </object>
        <object placeholders="1" c4Type="Relationship" id="ZBGyYvDXjg_CmxSVn3i1-35">
          <mxCell style="endArrow=blockThin;html=1;fontSize=10;fontColor=#404040;strokeWidth=1;endFill=1;strokeColor=#828282;elbow=vertical;metaEdit=1;endSize=14;startSize=14;jumpStyle=arc;jumpSize=16;rounded=0;edgeStyle=orthogonalEdgeStyle;entryX=0;entryY=0.5;entryDx=0;entryDy=0;exitX=0.75;exitY=0;exitDx=0;exitDy=0;sketch=1;curveFitting=1;jiggle=2;" parent="1" source="ZBGyYvDXjg_CmxSVn3i1-29" target="ZBGyYvDXjg_CmxSVn3i1-32" edge="1">
            <mxGeometry width="240" relative="1" as="geometry">
              <mxPoint x="-2289.9955172413797" y="-1580" as="sourcePoint" />
              <mxPoint x="-2252.03" y="-1580" as="targetPoint" />
            </mxGeometry>
          </mxCell>
        </object>
        <object placeholders="1" c4Type="Relationship" id="ZBGyYvDXjg_CmxSVn3i1-36">
          <mxCell style="endArrow=blockThin;html=1;fontSize=10;fontColor=#404040;strokeWidth=1;endFill=1;strokeColor=#828282;elbow=vertical;metaEdit=1;endSize=14;startSize=14;jumpStyle=arc;jumpSize=16;rounded=0;edgeStyle=orthogonalEdgeStyle;entryX=0;entryY=0.5;entryDx=0;entryDy=0;exitX=0.75;exitY=1;exitDx=0;exitDy=0;sketch=1;curveFitting=1;jiggle=2;" parent="1" source="ZBGyYvDXjg_CmxSVn3i1-29" target="ZBGyYvDXjg_CmxSVn3i1-31" edge="1">
            <mxGeometry width="240" relative="1" as="geometry">
              <mxPoint x="-2313" y="-1485.52" as="sourcePoint" />
              <mxPoint x="-2251" y="-1495.52" as="targetPoint" />
            </mxGeometry>
          </mxCell>
        </object>
        <mxCell id="ZBGyYvDXjg_CmxSVn3i1-38" value="Customer" style="rounded=1;whiteSpace=wrap;html=1;sketch=1;curveFitting=1;jiggle=2;shadow=1;strokeColor=#82b366;fillColor=#429d3d;" parent="1" vertex="1">
          <mxGeometry x="-2120" y="-1510" width="90" height="40" as="geometry" />
        </mxCell>
        <mxCell id="ZBGyYvDXjg_CmxSVn3i1-39" value="Product" style="rounded=1;whiteSpace=wrap;html=1;sketch=1;curveFitting=1;jiggle=2;shadow=1;strokeColor=#82b366;fillColor=#429d3d;" parent="1" vertex="1">
          <mxGeometry x="-2120" y="-1590" width="90" height="40" as="geometry" />
        </mxCell>
        <mxCell id="ZBGyYvDXjg_CmxSVn3i1-40" value="Ticket" style="rounded=1;whiteSpace=wrap;html=1;sketch=1;curveFitting=1;jiggle=2;shadow=1;strokeColor=#82b366;fillColor=#429d3d;" parent="1" vertex="1">
          <mxGeometry x="-1960" y="-1620" width="90" height="40" as="geometry" />
        </mxCell>
        <mxCell id="ZBGyYvDXjg_CmxSVn3i1-41" value="Defect" style="rounded=1;whiteSpace=wrap;html=1;sketch=1;curveFitting=1;jiggle=2;shadow=1;strokeColor=#82b366;fillColor=#429d3d;" parent="1" vertex="1">
          <mxGeometry x="-1920" y="-1520" width="90" height="40" as="geometry" />
        </mxCell>
        <mxCell id="ZBGyYvDXjg_CmxSVn3i1-42" value="Product&lt;div&gt;Version&lt;/div&gt;" style="rounded=1;whiteSpace=wrap;html=1;sketch=1;curveFitting=1;jiggle=2;shadow=1;strokeColor=#82b366;fillColor=#429d3d;" parent="1" vertex="1">
          <mxGeometry x="-1980" y="-1410" width="90" height="40" as="geometry" />
        </mxCell>
        <object placeholders="1" c4Type="Relationship" id="ZBGyYvDXjg_CmxSVn3i1-43">
          <mxCell style="endArrow=blockThin;html=1;fontSize=10;fontColor=#404040;strokeWidth=1;endFill=1;strokeColor=#828282;elbow=vertical;metaEdit=1;endSize=14;startSize=14;jumpStyle=arc;jumpSize=16;rounded=0;edgeStyle=orthogonalEdgeStyle;entryX=0;entryY=0.5;entryDx=0;entryDy=0;exitX=1;exitY=0.5;exitDx=0;exitDy=0;sketch=1;curveFitting=1;jiggle=2;" parent="1" source="ZBGyYvDXjg_CmxSVn3i1-39" target="ZBGyYvDXjg_CmxSVn3i1-40" edge="1">
            <mxGeometry width="240" relative="1" as="geometry">
              <mxPoint x="-2022.5" y="-1565" as="sourcePoint" />
              <mxPoint x="-1960.5" y="-1535" as="targetPoint" />
            </mxGeometry>
          </mxCell>
        </object>
        <object placeholders="1" c4Type="Relationship" id="ZBGyYvDXjg_CmxSVn3i1-44">
          <mxCell style="endArrow=blockThin;html=1;fontSize=10;fontColor=#404040;strokeWidth=1;endFill=1;strokeColor=#828282;elbow=vertical;metaEdit=1;endSize=14;startSize=14;jumpStyle=arc;jumpSize=16;rounded=0;edgeStyle=orthogonalEdgeStyle;entryX=0.5;entryY=0;entryDx=0;entryDy=0;exitX=0.75;exitY=1;exitDx=0;exitDy=0;sketch=1;curveFitting=1;jiggle=2;" parent="1" source="ZBGyYvDXjg_CmxSVn3i1-40" target="ZBGyYvDXjg_CmxSVn3i1-41" edge="1">
            <mxGeometry width="240" relative="1" as="geometry">
              <mxPoint x="-2020" y="-1560" as="sourcePoint" />
              <mxPoint x="-1950" y="-1590" as="targetPoint" />
            </mxGeometry>
          </mxCell>
        </object>
        <object placeholders="1" c4Type="Relationship" id="ZBGyYvDXjg_CmxSVn3i1-45">
          <mxCell style="endArrow=blockThin;html=1;fontSize=10;fontColor=#404040;strokeWidth=1;endFill=1;strokeColor=#828282;elbow=vertical;metaEdit=1;endSize=14;startSize=14;jumpStyle=arc;jumpSize=16;rounded=0;edgeStyle=orthogonalEdgeStyle;entryX=1;entryY=0.5;entryDx=0;entryDy=0;exitX=0.25;exitY=1;exitDx=0;exitDy=0;sketch=1;curveFitting=1;jiggle=2;" parent="1" source="ZBGyYvDXjg_CmxSVn3i1-40" target="ZBGyYvDXjg_CmxSVn3i1-38" edge="1">
            <mxGeometry width="240" relative="1" as="geometry">
              <mxPoint x="-1882" y="-1570" as="sourcePoint" />
              <mxPoint x="-1843" y="-1510" as="targetPoint" />
            </mxGeometry>
          </mxCell>
        </object>
        <object placeholders="1" c4Type="Relationship" id="ZBGyYvDXjg_CmxSVn3i1-46">
          <mxCell style="endArrow=blockThin;html=1;fontSize=10;fontColor=#404040;strokeWidth=1;endFill=1;strokeColor=#828282;elbow=vertical;metaEdit=1;endSize=14;startSize=14;jumpStyle=arc;jumpSize=16;rounded=0;edgeStyle=orthogonalEdgeStyle;entryX=0.5;entryY=0;entryDx=0;entryDy=0;exitX=0.75;exitY=1;exitDx=0;exitDy=0;sketch=1;curveFitting=1;jiggle=2;" parent="1" source="ZBGyYvDXjg_CmxSVn3i1-41" target="ZBGyYvDXjg_CmxSVn3i1-42" edge="1">
            <mxGeometry width="240" relative="1" as="geometry">
              <mxPoint x="-1870" y="-1460" as="sourcePoint" />
              <mxPoint x="-1831" y="-1400" as="targetPoint" />
            </mxGeometry>
          </mxCell>
        </object>
        <mxCell id="ZBGyYvDXjg_CmxSVn3i1-49" value="Sales Context" style="text;html=1;align=center;verticalAlign=middle;whiteSpace=wrap;rounded=0;fontSize=17;fontStyle=2;textShadow=1;fontColor=#c9a13b;labelBackgroundColor=none;labelBorderColor=none;" parent="1" vertex="1">
          <mxGeometry x="-2370" y="-1665" width="134" height="30" as="geometry" />
        </mxCell>
        <mxCell id="ZBGyYvDXjg_CmxSVn3i1-50" value="Support Context" style="text;html=1;align=center;verticalAlign=middle;whiteSpace=wrap;rounded=0;fontSize=17;fontStyle=2;textShadow=1;fontColor=#82b366;labelBackgroundColor=none;labelBorderColor=none;" parent="1" vertex="1">
          <mxGeometry x="-2030" y="-1665" width="134" height="30" as="geometry" />
        </mxCell>
        <object placeholders="1" c4Name="Exchange" c4Type="ContainerScopeBoundary" c4Application="Explicando Contextos Delimitados" label="&lt;font style=&quot;font-size: 16px&quot;&gt;&lt;b&gt;&lt;div style=&quot;&quot;&gt;%c4Name%&lt;/div&gt;&lt;/b&gt;&lt;/font&gt;&lt;div style=&quot;&quot;&gt;[%c4Application%]&lt;/div&gt;" id="ZBGyYvDXjg_CmxSVn3i1-51">
          <mxCell style="rounded=1;fontSize=11;whiteSpace=wrap;html=1;arcSize=20;fillColor=#DBDBDB;strokeColor=#d4d3d3;fontColor=#333333;labelBackgroundColor=none;align=left;verticalAlign=bottom;labelBorderColor=none;spacingTop=0;spacing=10;metaEdit=1;rotatable=0;perimeter=rectanglePerimeter;noLabel=0;labelPadding=0;allowArrows=0;connectable=0;expand=0;recursiveResize=0;editable=1;pointerEvents=0;absoluteArcSize=1;points=[[0.25,0,0],[0.5,0,0],[0.75,0,0],[1,0.25,0],[1,0.5,0],[1,0.75,0],[0.75,1,0],[0.5,1,0],[0.25,1,0],[0,0.75,0],[0,0.5,0],[0,0.25,0]];shadow=1;gradientColor=none;sketch=1;curveFitting=1;jiggle=2;glass=0;" parent="1" vertex="1">
            <mxGeometry x="-1770" y="-2170" width="370" height="440" as="geometry" />
          </mxCell>
        </object>
        <object placeholders="1" c4Name="Trader" c4Type="Person" c4Description="Pessoa que envia as ordens" label="&lt;font style=&quot;font-size: 16px&quot;&gt;&lt;b&gt;%c4Name%&lt;/b&gt;&lt;/font&gt;&lt;div&gt;[%c4Type%]&lt;/div&gt;&lt;br&gt;&lt;div&gt;&lt;font style=&quot;font-size: 11px&quot;&gt;&lt;font&gt;%c4Description%&lt;/font&gt;&lt;/font&gt;&lt;/div&gt;" id="ZBGyYvDXjg_CmxSVn3i1-52">
          <mxCell style="html=1;fontSize=11;dashed=0;whiteSpace=wrap;fillColor=#327dc8;strokeColor=#06315C;fontColor=#000000;shape=mxgraph.c4.person2;align=center;metaEdit=1;points=[[0.5,0,0],[1,0.5,0],[1,0.75,0],[0.75,1,0],[0.5,1,0],[0.25,1,0],[0,0.75,0],[0,0.5,0]];resizable=0;sketch=1;curveFitting=1;jiggle=2;" parent="1" vertex="1">
            <mxGeometry x="-1685" y="-2420" width="200" height="180" as="geometry" />
          </mxCell>
        </object>
        <object placeholders="1" c4Name="Matching Engine" c4Type="Component" c4Technology="C# BackgroundService&#xa;[ZeroMQ, Redis, MongoDB]" c4Description="Responsabilidade de efetuar o matching de &#xa;ordens e gerar os reports." label="&lt;font style=&quot;font-size: 16px&quot;&gt;&lt;b&gt;%c4Name%&lt;/b&gt;&lt;/font&gt;&lt;div&gt;[%c4Type%: %c4Technology%]&lt;/div&gt;&lt;br&gt;&lt;div&gt;&lt;font style=&quot;font-size: 11px&quot;&gt;%c4Description%&lt;/font&gt;&lt;/div&gt;" id="ZBGyYvDXjg_CmxSVn3i1-53">
          <mxCell style="rounded=1;whiteSpace=wrap;html=1;labelBackgroundColor=none;fillColor=#63BEF2;fontColor=#100f0f;align=center;arcSize=6;strokeColor=#2086C9;metaEdit=1;resizable=1;points=[[0.25,0,0],[0.5,0,0],[0.75,0,0],[1,0.25,0],[1,0.5,0],[1,0.75,0],[0.75,1,0],[0.5,1,0],[0.25,1,0],[0,0.75,0],[0,0.5,0],[0,0.25,0]];resizeWidth=0;glass=0;shadow=1;sketch=1;curveFitting=1;jiggle=2;gradientColor=none;verticalAlign=top;movable=1;rotatable=1;deletable=1;editable=1;locked=0;connectable=1;" parent="1" vertex="1">
            <mxGeometry x="-1725.5" y="-1910" width="285" height="120" as="geometry" />
          </mxCell>
        </object>
        <object placeholders="1" c4Name="Broker Engine" c4Type="Component" c4Technology="C# BackgroundService&#xa;[Redis, MongoDB, RabbitMQ]" c4Description="Responsabilidade de efetuar o recebimento e análise de ordens" label="&lt;font style=&quot;font-size: 16px&quot;&gt;&lt;b&gt;%c4Name%&lt;/b&gt;&lt;/font&gt;&lt;div&gt;[%c4Type%: %c4Technology%]&lt;/div&gt;&lt;br&gt;&lt;div&gt;&lt;font style=&quot;font-size: 11px&quot;&gt;%c4Description%&lt;/font&gt;&lt;/div&gt;" id="ZBGyYvDXjg_CmxSVn3i1-54">
          <mxCell style="rounded=1;whiteSpace=wrap;html=1;labelBackgroundColor=none;fillColor=#63BEF2;fontColor=#100f0f;align=center;arcSize=6;strokeColor=#2086C9;metaEdit=1;resizable=1;points=[[0.25,0,0],[0.5,0,0],[0.75,0,0],[1,0.25,0],[1,0.5,0],[1,0.75,0],[0.75,1,0],[0.5,1,0],[0.25,1,0],[0,0.75,0],[0,0.5,0],[0,0.25,0]];resizeWidth=0;glass=0;shadow=1;sketch=1;curveFitting=1;jiggle=2;gradientColor=none;verticalAlign=top;movable=1;rotatable=1;deletable=1;editable=1;locked=0;connectable=1;" parent="1" vertex="1">
            <mxGeometry x="-1725.5" y="-2135" width="285" height="120" as="geometry" />
          </mxCell>
        </object>
        <object placeholders="1" c4Type="Relationship" id="ZBGyYvDXjg_CmxSVn3i1-55">
          <mxCell style="endArrow=blockThin;html=1;fontSize=10;fontColor=#404040;strokeWidth=3;endFill=1;strokeColor=#828282;elbow=vertical;metaEdit=1;endSize=14;startSize=14;jumpStyle=arc;jumpSize=16;rounded=0;edgeStyle=orthogonalEdgeStyle;exitX=0.5;exitY=1;exitDx=0;exitDy=0;exitPerimeter=0;sketch=1;curveFitting=1;jiggle=2;" parent="1" source="ZBGyYvDXjg_CmxSVn3i1-52" edge="1">
            <mxGeometry width="240" relative="1" as="geometry">
              <mxPoint x="-1540" y="-2210" as="sourcePoint" />
              <mxPoint x="-1585" y="-2135" as="targetPoint" />
            </mxGeometry>
          </mxCell>
        </object>
        <object placeholders="1" c4Type="Relationship" id="ZBGyYvDXjg_CmxSVn3i1-56">
          <mxCell style="endArrow=blockThin;html=1;fontSize=10;fontColor=#404040;strokeWidth=3;endFill=1;strokeColor=#828282;elbow=vertical;metaEdit=1;endSize=14;startSize=14;jumpStyle=arc;jumpSize=16;rounded=0;edgeStyle=orthogonalEdgeStyle;exitX=0.5;exitY=1;exitDx=0;exitDy=0;exitPerimeter=0;sketch=1;curveFitting=1;jiggle=2;entryX=0.491;entryY=-0.016;entryDx=0;entryDy=0;entryPerimeter=0;" parent="1" edge="1" target="ZBGyYvDXjg_CmxSVn3i1-53">
            <mxGeometry width="240" relative="1" as="geometry">
              <mxPoint x="-1585.5" y="-2020" as="sourcePoint" />
              <mxPoint x="-1585.5" y="-1915" as="targetPoint" />
            </mxGeometry>
          </mxCell>
        </object>
        <object placeholders="1" c4Name="Container" c4Type="ContainerScopeBoundary" c4Application="Explicando Contexto Delimitados" label="&lt;font style=&quot;font-size: 16px&quot;&gt;&lt;b&gt;&lt;div style=&quot;&quot;&gt;%c4Name%&lt;/div&gt;&lt;/b&gt;&lt;/font&gt;&lt;div style=&quot;&quot;&gt;[%c4Application%]&lt;/div&gt;" id="sdNyDFk5IxW9DPWMKQOS-1">
          <mxCell style="rounded=1;fontSize=11;whiteSpace=wrap;html=1;arcSize=20;fillColor=#DBDBDB;strokeColor=#d4d3d3;fontColor=#333333;labelBackgroundColor=none;align=left;verticalAlign=bottom;labelBorderColor=none;spacingTop=0;spacing=10;metaEdit=1;rotatable=0;perimeter=rectanglePerimeter;noLabel=0;labelPadding=0;allowArrows=0;connectable=0;expand=0;recursiveResize=0;editable=1;pointerEvents=0;absoluteArcSize=1;points=[[0.25,0,0],[0.5,0,0],[0.75,0,0],[1,0.25,0],[1,0.5,0],[1,0.75,0],[0.75,1,0],[0.5,1,0],[0.25,1,0],[0,0.75,0],[0,0.5,0],[0,0.25,0]];shadow=1;gradientColor=none;sketch=1;curveFitting=1;jiggle=2;glass=0;" vertex="1" parent="1">
            <mxGeometry x="-1650" y="-1670" width="776" height="400" as="geometry" />
          </mxCell>
        </object>
        <mxCell id="sdNyDFk5IxW9DPWMKQOS-2" value="" style="verticalLabelPosition=bottom;verticalAlign=top;html=1;shape=mxgraph.basic.polygon;polyCoords=[[0.25,0],[0.87,0],[1,0.3],[1,0.91],[0.83,1],[0.25,1],[0,0.75],[0,0.3]];polyline=0;fillColor=none;dashed=1;dashPattern=12 12;sketch=1;curveFitting=1;jiggle=2;shadow=1;" vertex="1" parent="1">
          <mxGeometry x="-1634" y="-1650" width="380" height="330" as="geometry" />
        </mxCell>
        <mxCell id="sdNyDFk5IxW9DPWMKQOS-3" value="" style="verticalLabelPosition=bottom;verticalAlign=top;html=1;shape=mxgraph.basic.polygon;polyCoords=[[0.25,0],[0.8,0],[1,0.3],[1,0.75],[0.83,1],[0.23,0.95],[0,0.89],[0,0.23]];polyline=0;fillColor=none;dashed=1;dashPattern=12 12;sketch=1;curveFitting=1;jiggle=2;shadow=1;" vertex="1" parent="1">
          <mxGeometry x="-1244" y="-1635" width="350" height="330" as="geometry" />
        </mxCell>
        <mxCell id="sdNyDFk5IxW9DPWMKQOS-5" value="" style="rounded=0;whiteSpace=wrap;html=1;strokeColor=none;fillColor=#0c5ea6;sketch=1;curveFitting=1;jiggle=2;" vertex="1" parent="1">
          <mxGeometry x="-1274" y="-1540" width="50" height="20" as="geometry" />
        </mxCell>
        <mxCell id="sdNyDFk5IxW9DPWMKQOS-6" value="Position" style="rounded=1;whiteSpace=wrap;html=1;sketch=1;curveFitting=1;jiggle=2;shadow=1;strokeColor=#d79b00;fillColor=#a87743;" vertex="1" parent="1">
          <mxGeometry x="-1578" y="-1583" width="90" height="40" as="geometry" />
        </mxCell>
        <object placeholders="1" c4Type="Relationship" id="sdNyDFk5IxW9DPWMKQOS-7">
          <mxCell style="endArrow=blockThin;html=1;fontSize=10;fontColor=#404040;strokeWidth=1;endFill=1;strokeColor=#828282;elbow=vertical;metaEdit=1;endSize=14;startSize=14;jumpStyle=arc;jumpSize=16;rounded=0;edgeStyle=orthogonalEdgeStyle;exitX=0.465;exitY=-0.011;exitDx=0;exitDy=0;entryX=1;entryY=0.5;entryDx=0;entryDy=0;sketch=1;curveFitting=1;jiggle=2;exitPerimeter=0;" edge="1" parent="1" source="sdNyDFk5IxW9DPWMKQOS-12" target="sdNyDFk5IxW9DPWMKQOS-6">
            <mxGeometry width="240" relative="1" as="geometry">
              <mxPoint x="-1464" y="-1580.34" as="sourcePoint" />
              <mxPoint x="-1373.3600000000001" y="-1550" as="targetPoint" />
            </mxGeometry>
          </mxCell>
        </object>
        <mxCell id="sdNyDFk5IxW9DPWMKQOS-8" value="BFF" style="rounded=1;whiteSpace=wrap;html=1;sketch=1;curveFitting=1;jiggle=2;shadow=1;strokeColor=#d79b00;fillColor=#b48e65;" vertex="1" parent="1">
          <mxGeometry x="-1608" y="-1487" width="90" height="40" as="geometry" />
        </mxCell>
        <mxCell id="sdNyDFk5IxW9DPWMKQOS-9" value="Limit" style="rounded=1;whiteSpace=wrap;html=1;sketch=1;curveFitting=1;jiggle=2;shadow=1;strokeColor=#d79b00;fillColor=#b48e65;" vertex="1" parent="1">
          <mxGeometry x="-1484" y="-1520" width="90" height="40" as="geometry" />
        </mxCell>
        <mxCell id="sdNyDFk5IxW9DPWMKQOS-10" value="Audit" style="rounded=1;whiteSpace=wrap;html=1;sketch=1;curveFitting=1;jiggle=2;shadow=1;strokeColor=#d79b00;fillColor=#b48e65;" vertex="1" parent="1">
          <mxGeometry x="-1532" y="-1410" width="90" height="40" as="geometry" />
        </mxCell>
        <mxCell id="sdNyDFk5IxW9DPWMKQOS-11" value="Book" style="rounded=1;whiteSpace=wrap;html=1;sketch=1;curveFitting=1;jiggle=2;shadow=1;strokeColor=#d79b00;fillColor=#b48e65;" vertex="1" parent="1">
          <mxGeometry x="-1354" y="-1470" width="90" height="40" as="geometry" />
        </mxCell>
        <mxCell id="sdNyDFk5IxW9DPWMKQOS-12" value="Order&amp;nbsp;" style="rounded=1;whiteSpace=wrap;html=1;sketch=1;curveFitting=1;jiggle=2;shadow=1;strokeColor=#d8a114;fillColor=#b48e65;" vertex="1" parent="1">
          <mxGeometry x="-1354" y="-1550" width="90" height="40" as="geometry" />
        </mxCell>
        <object placeholders="1" c4Type="Relationship" id="sdNyDFk5IxW9DPWMKQOS-13">
          <mxCell style="endArrow=blockThin;html=1;fontSize=10;fontColor=#404040;strokeWidth=1;endFill=1;strokeColor=#828282;elbow=vertical;metaEdit=1;endSize=14;startSize=14;jumpStyle=arc;jumpSize=16;rounded=0;edgeStyle=orthogonalEdgeStyle;exitX=0.477;exitY=-0.036;exitDx=0;exitDy=0;entryX=-0.028;entryY=0.485;entryDx=0;entryDy=0;sketch=1;curveFitting=1;jiggle=2;exitPerimeter=0;entryPerimeter=0;" edge="1" parent="1" source="sdNyDFk5IxW9DPWMKQOS-8" target="sdNyDFk5IxW9DPWMKQOS-9">
            <mxGeometry width="240" relative="1" as="geometry">
              <mxPoint x="-1511.2600000000002" y="-1560" as="sourcePoint" />
              <mxPoint x="-1493.2600000000002" y="-1480" as="targetPoint" />
              <Array as="points">
                <mxPoint x="-1565" y="-1500" />
                <mxPoint x="-1501" y="-1500" />
              </Array>
            </mxGeometry>
          </mxCell>
        </object>
        <object placeholders="1" c4Type="Relationship" id="sdNyDFk5IxW9DPWMKQOS-14">
          <mxCell style="endArrow=blockThin;html=1;fontSize=10;fontColor=#404040;strokeWidth=1;endFill=1;strokeColor=#828282;elbow=vertical;metaEdit=1;endSize=14;startSize=14;jumpStyle=arc;jumpSize=16;rounded=0;edgeStyle=orthogonalEdgeStyle;exitX=0.25;exitY=1;exitDx=0;exitDy=0;entryX=0.5;entryY=0;entryDx=0;entryDy=0;sketch=1;curveFitting=1;jiggle=2;" edge="1" parent="1" source="sdNyDFk5IxW9DPWMKQOS-9" target="sdNyDFk5IxW9DPWMKQOS-10">
            <mxGeometry width="240" relative="1" as="geometry">
              <mxPoint x="-1434" y="-1460" as="sourcePoint" />
              <mxPoint x="-1416" y="-1380" as="targetPoint" />
            </mxGeometry>
          </mxCell>
        </object>
        <object placeholders="1" c4Type="Relationship" id="sdNyDFk5IxW9DPWMKQOS-15">
          <mxCell style="endArrow=blockThin;html=1;fontSize=10;fontColor=#404040;strokeWidth=1;endFill=1;strokeColor=#828282;elbow=vertical;metaEdit=1;endSize=14;startSize=14;jumpStyle=arc;jumpSize=16;rounded=0;edgeStyle=orthogonalEdgeStyle;entryX=0;entryY=0.5;entryDx=0;entryDy=0;exitX=0.75;exitY=0;exitDx=0;exitDy=0;sketch=1;curveFitting=1;jiggle=2;" edge="1" parent="1" source="sdNyDFk5IxW9DPWMKQOS-9" target="sdNyDFk5IxW9DPWMKQOS-12">
            <mxGeometry width="240" relative="1" as="geometry">
              <mxPoint x="-1403.9955172413797" y="-1540" as="sourcePoint" />
              <mxPoint x="-1366.0300000000002" y="-1540" as="targetPoint" />
            </mxGeometry>
          </mxCell>
        </object>
        <mxCell id="sdNyDFk5IxW9DPWMKQOS-17" value="Book" style="rounded=1;whiteSpace=wrap;html=1;sketch=1;curveFitting=1;jiggle=2;shadow=1;strokeColor=#82b366;fillColor=#429d3d;" vertex="1" parent="1">
          <mxGeometry x="-1234" y="-1470" width="90" height="40" as="geometry" />
        </mxCell>
        <mxCell id="sdNyDFk5IxW9DPWMKQOS-18" value="Order" style="rounded=1;whiteSpace=wrap;html=1;sketch=1;curveFitting=1;jiggle=2;shadow=1;strokeColor=#82b366;fillColor=#429d3d;" vertex="1" parent="1">
          <mxGeometry x="-1234" y="-1550" width="90" height="40" as="geometry" />
        </mxCell>
        <mxCell id="sdNyDFk5IxW9DPWMKQOS-19" value="Matching" style="rounded=1;whiteSpace=wrap;html=1;sketch=1;curveFitting=1;jiggle=2;shadow=1;strokeColor=#82b366;fillColor=#429d3d;" vertex="1" parent="1">
          <mxGeometry x="-1074" y="-1580" width="90" height="40" as="geometry" />
        </mxCell>
        <mxCell id="sdNyDFk5IxW9DPWMKQOS-20" value="FIX" style="rounded=1;whiteSpace=wrap;html=1;sketch=1;curveFitting=1;jiggle=2;shadow=1;strokeColor=#82b366;fillColor=#429d3d;" vertex="1" parent="1">
          <mxGeometry x="-1034" y="-1480" width="90" height="40" as="geometry" />
        </mxCell>
        <mxCell id="sdNyDFk5IxW9DPWMKQOS-21" value="Trade" style="rounded=1;whiteSpace=wrap;html=1;sketch=1;curveFitting=1;jiggle=2;shadow=1;strokeColor=#82b366;fillColor=#429d3d;" vertex="1" parent="1">
          <mxGeometry x="-1094" y="-1370" width="90" height="40" as="geometry" />
        </mxCell>
        <object placeholders="1" c4Type="Relationship" id="sdNyDFk5IxW9DPWMKQOS-22">
          <mxCell style="endArrow=blockThin;html=1;fontSize=10;fontColor=#404040;strokeWidth=1;endFill=1;strokeColor=#828282;elbow=vertical;metaEdit=1;endSize=14;startSize=14;jumpStyle=arc;jumpSize=16;rounded=0;edgeStyle=orthogonalEdgeStyle;entryX=0;entryY=0.5;entryDx=0;entryDy=0;exitX=1;exitY=0.5;exitDx=0;exitDy=0;sketch=1;curveFitting=1;jiggle=2;" edge="1" parent="1" source="sdNyDFk5IxW9DPWMKQOS-18" target="sdNyDFk5IxW9DPWMKQOS-19">
            <mxGeometry width="240" relative="1" as="geometry">
              <mxPoint x="-1136.5" y="-1525" as="sourcePoint" />
              <mxPoint x="-1074.5" y="-1495" as="targetPoint" />
            </mxGeometry>
          </mxCell>
        </object>
        <object placeholders="1" c4Type="Relationship" id="sdNyDFk5IxW9DPWMKQOS-23">
          <mxCell style="endArrow=blockThin;html=1;fontSize=10;fontColor=#404040;strokeWidth=1;endFill=1;strokeColor=#828282;elbow=vertical;metaEdit=1;endSize=14;startSize=14;jumpStyle=arc;jumpSize=16;rounded=0;edgeStyle=orthogonalEdgeStyle;entryX=0.5;entryY=0;entryDx=0;entryDy=0;exitX=0.75;exitY=1;exitDx=0;exitDy=0;sketch=1;curveFitting=1;jiggle=2;" edge="1" parent="1" source="sdNyDFk5IxW9DPWMKQOS-19" target="sdNyDFk5IxW9DPWMKQOS-20">
            <mxGeometry width="240" relative="1" as="geometry">
              <mxPoint x="-1134" y="-1520" as="sourcePoint" />
              <mxPoint x="-1064" y="-1550" as="targetPoint" />
            </mxGeometry>
          </mxCell>
        </object>
        <object placeholders="1" c4Type="Relationship" id="sdNyDFk5IxW9DPWMKQOS-24">
          <mxCell style="endArrow=blockThin;html=1;fontSize=10;fontColor=#404040;strokeWidth=1;endFill=1;strokeColor=#828282;elbow=vertical;metaEdit=1;endSize=14;startSize=14;jumpStyle=arc;jumpSize=16;rounded=0;edgeStyle=orthogonalEdgeStyle;entryX=1;entryY=0.5;entryDx=0;entryDy=0;exitX=0.081;exitY=0.974;exitDx=0;exitDy=0;sketch=1;curveFitting=1;jiggle=2;exitPerimeter=0;" edge="1" parent="1" source="sdNyDFk5IxW9DPWMKQOS-19" target="sdNyDFk5IxW9DPWMKQOS-17">
            <mxGeometry width="240" relative="1" as="geometry">
              <mxPoint x="-996" y="-1530" as="sourcePoint" />
              <mxPoint x="-957" y="-1470" as="targetPoint" />
            </mxGeometry>
          </mxCell>
        </object>
        <object placeholders="1" c4Type="Relationship" id="sdNyDFk5IxW9DPWMKQOS-25">
          <mxCell style="endArrow=blockThin;html=1;fontSize=10;fontColor=#404040;strokeWidth=1;endFill=1;strokeColor=#828282;elbow=vertical;metaEdit=1;endSize=14;startSize=14;jumpStyle=arc;jumpSize=16;rounded=0;edgeStyle=orthogonalEdgeStyle;entryX=1;entryY=0.5;entryDx=0;entryDy=0;exitX=0.75;exitY=1;exitDx=0;exitDy=0;sketch=1;curveFitting=1;jiggle=2;" edge="1" parent="1" source="sdNyDFk5IxW9DPWMKQOS-20" target="sdNyDFk5IxW9DPWMKQOS-21">
            <mxGeometry width="240" relative="1" as="geometry">
              <mxPoint x="-984" y="-1420" as="sourcePoint" />
              <mxPoint x="-945" y="-1360" as="targetPoint" />
            </mxGeometry>
          </mxCell>
        </object>
        <mxCell id="sdNyDFk5IxW9DPWMKQOS-26" value="Broker Engine" style="text;html=1;align=center;verticalAlign=middle;whiteSpace=wrap;rounded=0;fontSize=17;fontStyle=2;textShadow=1;fontColor=#c9a13b;labelBackgroundColor=none;labelBorderColor=none;" vertex="1" parent="1">
          <mxGeometry x="-1484" y="-1625" width="134" height="30" as="geometry" />
        </mxCell>
        <mxCell id="sdNyDFk5IxW9DPWMKQOS-27" value="Matching Engine" style="text;html=1;align=center;verticalAlign=middle;whiteSpace=wrap;rounded=0;fontSize=17;fontStyle=2;textShadow=1;fontColor=#82b366;labelBackgroundColor=none;labelBorderColor=none;" vertex="1" parent="1">
          <mxGeometry x="-1144" y="-1625" width="134" height="30" as="geometry" />
        </mxCell>
        <mxCell id="sdNyDFk5IxW9DPWMKQOS-28" value="Security" style="rounded=1;whiteSpace=wrap;html=1;sketch=1;curveFitting=1;jiggle=2;shadow=1;strokeColor=#d79b00;fillColor=#b48e65;" vertex="1" parent="1">
          <mxGeometry x="-1354" y="-1400" width="90" height="40" as="geometry" />
        </mxCell>
        <mxCell id="sdNyDFk5IxW9DPWMKQOS-29" value="Security" style="rounded=1;whiteSpace=wrap;html=1;sketch=1;curveFitting=1;jiggle=2;shadow=1;strokeColor=#82b366;fillColor=#429d3d;" vertex="1" parent="1">
          <mxGeometry x="-1234" y="-1400" width="90" height="40" as="geometry" />
        </mxCell>
        <object placeholders="1" c4Type="Relationship" id="sdNyDFk5IxW9DPWMKQOS-31">
          <mxCell style="endArrow=blockThin;html=1;fontSize=10;fontColor=#404040;strokeWidth=1;endFill=1;strokeColor=#828282;elbow=vertical;metaEdit=1;endSize=14;startSize=14;jumpStyle=arc;jumpSize=16;rounded=0;edgeStyle=orthogonalEdgeStyle;entryX=0.358;entryY=1.006;entryDx=0;entryDy=0;exitX=1;exitY=0.25;exitDx=0;exitDy=0;sketch=1;curveFitting=1;jiggle=2;entryPerimeter=0;" edge="1" parent="1" source="sdNyDFk5IxW9DPWMKQOS-29" target="sdNyDFk5IxW9DPWMKQOS-19">
            <mxGeometry width="240" relative="1" as="geometry">
              <mxPoint x="-1057" y="-1531" as="sourcePoint" />
              <mxPoint x="-1134" y="-1440" as="targetPoint" />
              <Array as="points">
                <mxPoint x="-1042" y="-1390" />
              </Array>
            </mxGeometry>
          </mxCell>
        </object>
        <object placeholders="1" c4Type="Relationship" id="sdNyDFk5IxW9DPWMKQOS-33">
          <mxCell style="endArrow=blockThin;html=1;fontSize=10;fontColor=#404040;strokeWidth=1;endFill=1;strokeColor=#828282;elbow=vertical;metaEdit=1;endSize=14;startSize=14;jumpStyle=arc;jumpSize=16;rounded=0;edgeStyle=orthogonalEdgeStyle;exitX=0;exitY=0.5;exitDx=0;exitDy=0;entryX=0.415;entryY=0.981;entryDx=0;entryDy=0;sketch=1;curveFitting=1;jiggle=2;entryPerimeter=0;" edge="1" parent="1" source="sdNyDFk5IxW9DPWMKQOS-28" target="sdNyDFk5IxW9DPWMKQOS-12">
            <mxGeometry width="240" relative="1" as="geometry">
              <mxPoint x="-1451" y="-1470" as="sourcePoint" />
              <mxPoint x="-1477" y="-1400" as="targetPoint" />
              <Array as="points">
                <mxPoint x="-1380" y="-1380" />
                <mxPoint x="-1380" y="-1490" />
                <mxPoint x="-1317" y="-1490" />
              </Array>
            </mxGeometry>
          </mxCell>
        </object>
        <object placeholders="1" c4Type="Relationship" id="sdNyDFk5IxW9DPWMKQOS-34">
          <mxCell style="endArrow=blockThin;html=1;fontSize=10;fontColor=#404040;strokeWidth=1;endFill=1;strokeColor=#828282;elbow=vertical;metaEdit=1;endSize=14;startSize=14;jumpStyle=arc;jumpSize=16;rounded=0;edgeStyle=orthogonalEdgeStyle;exitX=0.5;exitY=0;exitDx=0;exitDy=0;entryX=0.5;entryY=1;entryDx=0;entryDy=0;sketch=1;curveFitting=1;jiggle=2;" edge="1" parent="1" source="sdNyDFk5IxW9DPWMKQOS-28" target="sdNyDFk5IxW9DPWMKQOS-11">
            <mxGeometry width="240" relative="1" as="geometry">
              <mxPoint x="-1344" y="-1370" as="sourcePoint" />
              <mxPoint x="-1307" y="-1501" as="targetPoint" />
              <Array as="points">
                <mxPoint x="-1309" y="-1410" />
                <mxPoint x="-1310" y="-1410" />
                <mxPoint x="-1310" y="-1420" />
                <mxPoint x="-1309" y="-1420" />
              </Array>
            </mxGeometry>
          </mxCell>
        </object>
      </root>
    </mxGraphModel>
  </diagram>
</mxfile>
